<?xml version="1.0" encoding="UTF-8" standalone="no"?>
<svg width="200px" height="65px" viewBox="0 0 200 65" version="1.1" xmlns="http://www.w3.org/2000/svg" xmlns:xlink="http://www.w3.org/1999/xlink" xmlns:sketch="http://www.bohemiancoding.com/sketch/ns">
    <!-- Generator: Sketch 3.4.4 (17249) - http://www.bohemiancoding.com/sketch -->
    <title>logo</title>
    <desc>Created with Sketch.</desc>
    <defs></defs>
    <g id="Page-1" stroke="none" stroke-width="1" fill="none" fill-rule="evenodd" sketch:type="MSPage">
        <g id="logo" sketch:type="MSArtboardGroup" transform="translate(-400.000000, -402.000000)" fill="#FFFFFF">
            <g sketch:type="MSLayerGroup" transform="translate(400.000000, 402.000000)">
                <g id="Group" sketch:type="MSShapeGroup">
                    <path d="M4.37053571,50.2295483 L0,50.2295483 L0,13.9187495 L4.37053571,13.9187495 L4.37053571,50.2295483 Z M4.37053571,7.10788701 L0,7.10788701 L0,0 L4.37053571,0 L4.37053571,7.10788701 Z" id="Fill-1"></path>
                    <path d="M30.5294643,14.4704951 L30.5294643,18.1896022 L23.1517857,18.1896022 L23.1517857,42.6932259 C23.1517857,44.1486461 23.35,45.2890402 23.7473214,46.1072078 C24.1482143,46.9298758 25.1419643,47.3880136 26.7339286,47.4798212 C28,47.4798212 29.2669643,47.4060151 30.5294643,47.2512023 L30.5294643,51.0270141 C29.8732143,51.0270141 29.2205357,51.0450156 28.5642857,51.0837188 C27.9116071,51.1242222 27.2553571,51.1413236 26.5991071,51.1413236 C23.6553571,51.1413236 21.5946429,50.565276 20.4276786,49.4131808 C19.2571429,48.2673862 18.6964286,46.1441109 18.7428571,43.0433548 L18.7821429,18.1896022 L12.5,18.1896022 L12.5,14.4704951 L18.7821429,14.4704951 L18.7821429,3.60029733 L23.1517857,3.60029733 L23.1517857,14.4704951 L30.5294643,14.4704951 Z" id="Fill-3"></path>
                    <path d="M65.2151786,25.3001894 C64.6794643,23.7556619 63.9276786,22.3866488 62.9517857,21.1922502 C61.9767857,19.9978515 60.7919643,19.0356721 59.3982143,18.3102122 C58.0035714,17.5847523 56.4258929,17.2193221 54.6625,17.2193221 C52.85,17.2193221 51.2473214,17.5847523 49.8526786,18.3102122 C48.4589286,19.0356721 47.2776786,19.9978515 46.3026786,21.1922502 C45.3276786,22.3866488 44.5464286,23.7664628 43.96875,25.3361924 C43.3866071,26.9059221 43.0044643,28.5080544 42.8196429,30.1488899 L66.0875,30.1488899 C66.0375,28.4648508 65.7473214,26.8492174 65.2151786,25.3001894 M43.4794643,38.8346072 C43.9223214,40.5501489 44.6321429,42.0874758 45.6071429,43.4501884 C46.5830357,44.8120008 47.8169643,45.9388939 49.3035714,46.8335678 C50.7928571,47.7228412 52.58125,48.1692781 54.6732143,48.1692781 C57.8830357,48.1692781 60.3910714,47.3259085 62.2071429,45.6346688 C64.0196429,43.9479295 65.275,41.6950434 65.9741071,38.880511 L70.4008929,38.880511 C69.4678571,43.0109521 67.7544643,46.2008155 65.2607143,48.4528015 C62.7714286,50.7047875 59.2419643,51.8307805 54.6732143,51.8307805 C51.8321429,51.8307805 49.3741071,51.3267389 47.3026786,50.3195557 C45.2276786,49.3105724 43.5392857,47.9307584 42.2339286,46.170213 C40.9294643,44.4123678 39.9642857,42.3745996 39.3366071,40.0497076 C38.7053571,37.7329162 38.3928571,35.2802137 38.3928571,32.7024008 C38.3928571,30.3100032 38.7053571,27.9644095 39.3330357,25.6692199 C39.9607143,23.3731303 40.9294643,21.3209608 42.2303571,19.5154117 C43.5357143,17.7098626 45.2241071,16.2580427 47.2955357,15.1527514 C49.3678571,14.0519605 51.8223214,13.501115 54.6625,13.501115 C57.5464286,13.501115 60.0151786,14.0870634 62.0616071,15.25716 C64.1116071,16.4290568 65.775,17.9600833 67.05625,19.8547397 C68.3366071,21.7538966 69.2544643,23.9311764 69.8151786,26.3874792 C70.3723214,28.8473824 70.60625,31.3396882 70.5142857,33.867097 L42.8196429,33.867097 C42.8196429,35.466529 43.0392857,37.1217657 43.4794643,38.8346072" id="Fill-4"></path>
                    <path d="M84.4428571,14.0327616 L84.4428571,22.5465648 L84.5776786,22.5465648 C85.6910714,19.5925208 87.4232143,17.3117324 89.7741071,15.7096001 C92.1232143,14.1074678 94.9285714,13.3784076 98.1848214,13.5179191 L98.1848214,17.9795876 C96.1839286,17.8868799 94.3678571,18.1551021 92.7392857,18.7914546 C91.1116071,19.425107 89.7035714,20.3296817 88.5151786,21.5024785 C87.3303571,22.6752754 86.4116071,24.0694905 85.7598214,25.6896243 C85.10625,27.3097581 84.7839286,29.0793043 84.7839286,31.0027631 L84.7839286,50.3606618 L80.3571429,50.3606618 L80.3571429,14.0327616 L84.4428571,14.0327616 Z" id="Fill-5"></path>
                    <path d="M128.4,31.0003602 C128.120536,31.518803 127.583929,31.8905337 126.79375,32.1263532 C126.001786,32.3630727 125.303571,32.5268863 124.700893,32.6195939 C122.838393,32.9490211 120.916071,33.2424454 118.940179,33.4989665 C116.960714,33.7572879 115.15625,34.1425197 113.528571,34.6573622 C111.896429,35.1767051 110.558929,35.9129659 109.5125,36.8742453 C108.4625,37.8364248 107.941071,39.2090381 107.941071,40.9929855 C107.941071,42.1171783 108.160714,43.1144607 108.604464,43.9839325 C109.044643,44.8525042 109.640179,45.6031662 110.384821,46.2359184 C111.130357,46.8686707 111.988393,47.3520106 112.967857,47.6769375 C113.947321,48.0054646 114.947321,48.1692781 115.971429,48.1692781 C117.645536,48.1692781 119.252679,47.9127569 120.788393,47.3943141 C122.324107,46.8794716 123.665179,46.1288096 124.804464,45.1459284 C125.945536,44.1585469 126.854464,42.9641482 127.527679,41.5555319 C128.200893,40.1505159 128.542857,38.5519839 128.542857,36.7707368 L128.542857,31.0003602 L128.4,31.0003602 Z M106.427679,20.1769663 C107.16875,18.6252382 108.179464,17.3624339 109.459821,16.3795527 C110.736607,15.3966716 112.233036,14.6703116 113.953571,14.2013728 C115.673214,13.7333342 117.578571,13.501115 119.667857,13.501115 C121.249107,13.501115 122.828571,13.6541276 124.40625,13.9583528 C125.988393,14.2625779 127.403571,14.8386255 128.659821,15.6819951 C129.914286,16.5262648 130.936607,17.7098626 131.727679,19.2327884 C132.514286,20.7557141 132.911607,22.7367777 132.911607,25.1750791 L132.911607,44.4474707 C132.911607,46.2287179 133.770536,47.1179913 135.49375,47.1179913 C136.005357,47.1179913 136.469643,47.0270838 136.8875,46.8371681 L136.8875,50.565276 C136.378571,50.6588837 135.923214,50.7290895 135.528571,50.7767935 C135.132143,50.8235973 134.632143,50.8487994 134.029464,50.8487994 C132.911607,50.8487994 132.01875,50.6939866 131.348214,50.3897615 C130.674107,50.0855364 130.15625,49.6553008 129.783929,49.0891541 C129.415179,48.5248075 129.169643,47.8578524 129.055357,47.0828884 C128.939286,46.3115247 128.883036,45.455554 128.883036,44.5167765 L128.740179,44.5167765 C127.95,45.6886733 127.148214,46.7327595 126.335714,47.647235 C125.523214,48.5599104 124.616071,49.3240735 123.616071,49.9325237 C122.61875,50.540974 121.480357,51.0081126 120.2,51.3393399 C118.923214,51.6660669 117.401786,51.8307805 115.634821,51.8307805 C113.960714,51.8307805 112.389286,51.630964 110.928571,51.2349313 C109.463393,50.8343982 108.182143,50.201646 107.090179,49.3312741 C105.997321,48.4663026 105.139286,47.3664118 104.510714,46.0280013 C103.883929,44.6904908 103.571429,43.1072601 103.571429,41.2801092 C103.571429,38.7482001 104.128571,36.7635362 105.245536,35.333318 C106.358929,33.904 107.834821,32.8131099 109.672321,32.0624479 C111.508929,31.3108858 113.576786,30.7852424 115.879464,30.4819174 C118.18125,30.174092 120.519643,29.8806677 122.891071,29.6025448 C123.820536,29.508937 124.633036,29.3910273 125.332143,29.2524158 C126.030357,29.108404 126.6125,28.8617836 127.077679,28.5116547 C127.541964,28.1579255 127.899107,27.6781858 128.15625,27.0706357 C128.410714,26.4594852 128.542857,25.6620193 128.542857,24.6746378 C128.542857,23.1769141 128.297321,21.9465125 127.808036,20.9852331 C127.31875,20.0230536 126.644643,19.2606907 125.782143,18.6963441 C124.921429,18.1346977 123.916964,17.7449655 122.777679,17.5379484 C121.636607,17.3237307 120.416071,17.2193221 119.110714,17.2193221 C116.316071,17.2193221 114.035714,17.8880773 112.265179,19.2255878 C110.495536,20.5630982 109.566071,22.7088754 109.474107,25.6620193 L105.103571,25.6620193 C105.241964,23.5522451 105.683036,21.7214939 106.427679,20.1769663 L106.427679,20.1769663 Z" id="Fill-6"></path>
                    <path d="M159.99375,14.4704951 L159.99375,18.1896022 L152.616071,18.1896022 L152.616071,42.6932259 C152.616071,44.1486461 152.814286,45.2890402 153.211607,46.1072078 C153.6125,46.9298758 154.605357,47.3880136 156.197321,47.4798212 C157.464286,47.4798212 158.730357,47.4060151 159.99375,47.2512023 L159.99375,51.0270141 C159.336607,51.0270141 158.683929,51.0450156 158.028571,51.0837188 C157.375893,51.1242222 156.71875,51.1413236 156.063393,51.1413236 C153.119643,51.1413236 151.058036,50.565276 149.891964,49.4131808 C148.720536,48.2673862 148.159821,46.1441109 148.20625,43.0433548 L148.245536,18.1896022 L141.964286,18.1896022 L141.964286,14.4704951 L148.245536,14.4704951 L148.245536,3.60029733 L152.616071,3.60029733 L152.616071,14.4704951 L159.99375,14.4704951 Z" id="Fill-7"></path>
                    <path d="M194.679464,25.3001894 C194.147321,23.7556619 193.391964,22.3866488 192.416161,21.1922502 C191.441071,19.9978515 190.25625,19.0356721 188.865179,18.3102122 C187.472321,17.5847523 185.892857,17.2193221 184.127679,17.2193221 C182.313482,17.2193221 180.714286,17.5847523 179.320536,18.3102122 C177.926786,19.0356721 176.741964,19.9978515 175.766964,21.1922502 C174.791071,22.3866488 174.014286,23.7664628 173.432143,25.3361924 C172.851786,26.9059221 172.467857,28.5080544 172.283036,30.1488899 L195.550893,30.1488899 C195.505357,28.4648508 195.215179,26.8492174 194.679464,25.3001894 M172.947321,38.8346072 C173.386607,40.5501489 174.096429,42.0874758 175.075,43.4501884 C176.050893,44.8120008 177.28125,45.9388939 178.770536,46.8335678 C180.258036,47.7228412 182.048214,48.1692781 184.141071,48.1692781 C187.347411,48.1692781 189.858036,47.3259085 191.671429,45.6346688 C193.483036,43.9479295 194.739286,41.6950434 195.438393,38.880511 L199.865179,38.880511 C198.932143,43.0109521 197.222411,46.2008155 194.728571,48.4528015 C192.235714,50.7047875 188.705357,51.8307805 184.141071,51.8307805 C181.300893,51.8307805 178.841964,51.3267389 176.766071,50.3195557 C174.695536,49.3105724 173.003571,47.9307584 171.702679,46.170213 C170.396429,44.4123678 169.428571,42.3745996 168.800893,40.0497076 C168.172321,37.7329162 167.857143,35.2802137 167.857143,32.7024008 C167.857143,30.3100032 168.172321,27.9644095 168.800893,25.6692199 C169.428571,23.3731303 170.392857,21.3209608 171.699107,19.5154117 C173,17.7098626 174.688393,16.2580427 176.759821,15.1527514 C178.83125,14.0519605 181.290179,13.501115 184.127679,13.501115 C187.013393,13.501115 189.479554,14.0870634 191.529464,15.25716 C193.575893,16.4290568 195.242857,17.9600833 196.523214,19.8547397 C197.804464,21.7538966 198.722321,23.9311764 199.279464,26.3874792 C199.839286,28.8473824 200.070625,31.3396882 199.977679,33.867097 L172.283036,33.867097 C172.283036,35.466529 172.503571,37.1217657 172.947321,38.8346072" id="Fill-8"></path>
                </g>
                <path d="M58,65 L64,65 L64,61 L58,61 L58,65 Z" id="Fill-9" sketch:type="MSShapeGroup"></path>
                <path d="M68,65 L74,65 L74,61 L68,61 L68,65 Z" id="Fill-10" sketch:type="MSShapeGroup"></path>
                <path d="M78,65 L90,65 L90,61 L78,61 L78,65 Z" id="Fill-11" sketch:type="MSShapeGroup"></path>
                <path d="M94,65 L112,65 L112,61 L94,61 L94,65 Z" id="Fill-12" sketch:type="MSShapeGroup"></path>
                <path d="M116,65 L146,65 L146,61 L116,61 L116,65 Z" id="Fill-13" sketch:type="MSShapeGroup"></path>
                <path d="M150,65 L198,65 L198,61 L150,61 L150,65 Z" id="Fill-14" sketch:type="MSShapeGroup"></path>
            </g>
        </g>
    </g>
</svg>