<?xml version="1.0" encoding="UTF-8" standalone="no"?>
<svg width="477px" height="57px" viewBox="0 0 477 57" version="1.1" xmlns="http://www.w3.org/2000/svg" xmlns:xlink="http://www.w3.org/1999/xlink" xmlns:sketch="http://www.bohemiancoding.com/sketch/ns">
    <!-- Generator: Sketch 3.4.4 (17249) - http://www.bohemiancoding.com/sketch -->
    <title>SatsElixia_logo_white</title>
    <desc>Created with Sketch.</desc>
    <defs>
        <path id="path-1" d="M0.06,0.307 L476.419,0.307 L476.419,57 L0.06,57"></path>
    </defs>
    <g id="Page-1" stroke="none" stroke-width="1" fill="none" fill-rule="evenodd" sketch:type="MSPage">
        <g id="SatsElixia_logo_white" sketch:type="MSLayerGroup">
            <path d="M203.511,30.06 L225.817,30.06 L225.817,24.534 L203.511,24.534 L203.511,7.03 L229.098,7.03 L229.098,1.573 L195.742,1.573 L195.742,55.856 L229.098,55.856 L232.761,50.333 L203.511,50.333 L203.511,30.06" id="Fill-1" fill="#FFFFFF" sketch:type="MSShapeGroup"></path>
            <path d="M257.956,1.606 L250.288,1.606 L250.288,55.856 L283.715,55.856 L287.201,50.4 L257.956,50.4 L257.956,1.606" id="Fill-2" fill="#FFFFFF" sketch:type="MSShapeGroup"></path>
            <path d="M300.934,1.647 L308.598,1.647 L308.598,55.858 L300.934,55.858 L300.934,1.647 Z" id="Fill-3" fill="#FFFFFF" sketch:type="MSShapeGroup"></path>
            <path d="M453.355,1.606 L445.998,1.606 L421.827,55.856 L429.596,55.856 L448.036,12.276 C448.448,11.346 448.622,10.968 449.138,9.448 C449.729,11.206 449.828,11.412 450.142,12.276 L459.258,34.965 L441.921,34.965 L439.643,40.419 L461.431,40.419 L467.889,55.856 L476.419,55.856 L453.355,1.606" id="Fill-4" fill="#FFFFFF" sketch:type="MSShapeGroup"></path>
            <path d="M360.971,32.582 L360.971,32.582 L353.135,22.15 L337.769,1.644 L328.618,1.644 L348.575,28.022 L327.371,55.892 L335.97,55.892 L352.89,33.653 L369.43,55.892 L378.377,55.892 L360.971,32.582" id="Fill-5" fill="#FFFFFF" sketch:type="MSShapeGroup"></path>
            <path d="M359.313,25.087 L377.266,1.645 L368.846,1.645 L355.135,19.461 L359.313,25.087" id="Fill-6" fill="#FFFFFF" sketch:type="MSShapeGroup"></path>
            <path d="M397.39,1.647 L405.058,1.647 L405.058,55.858 L397.39,55.858 L397.39,1.647 Z" id="Fill-7" fill="#FFFFFF" sketch:type="MSShapeGroup"></path>
            <path d="M203.511,30.06 L225.817,30.06 L225.817,24.534 L203.511,24.534 L203.511,7.03 L229.098,7.03 L229.098,1.573 L195.742,1.573 L195.742,55.856 L229.098,55.856 L232.761,50.333 L203.511,50.333 L203.511,30.06" id="Fill-8" fill="#FFFFFF" sketch:type="MSShapeGroup"></path>
            <path d="M257.956,1.606 L250.288,1.606 L250.288,55.856 L283.715,55.856 L287.201,50.4 L257.956,50.4 L257.956,1.606" id="Fill-9" fill="#FFFFFF" sketch:type="MSShapeGroup"></path>
            <path d="M300.934,1.647 L308.598,1.647 L308.598,55.858 L300.934,55.858 L300.934,1.647 Z" id="Fill-10" fill="#FFFFFF" sketch:type="MSShapeGroup"></path>
            <path d="M453.355,1.606 L445.998,1.606 L421.827,55.856 L429.596,55.856 L448.036,12.276 C448.448,11.346 448.622,10.968 449.138,9.448 C449.729,11.206 449.828,11.412 450.142,12.276 L459.258,34.965 L441.921,34.965 L439.643,40.419 L461.431,40.419 L467.889,55.856 L476.419,55.856 L453.355,1.606" id="Fill-11" fill="#FFFFFF" sketch:type="MSShapeGroup"></path>
            <path d="M360.971,32.582 L360.971,32.582 L353.135,22.15 L337.769,1.644 L328.618,1.644 L348.575,28.022 L327.371,55.892 L335.97,55.892 L352.89,33.653 L369.43,55.892 L378.377,55.892 L360.971,32.582" id="Fill-12" fill="#FFFFFF" sketch:type="MSShapeGroup"></path>
            <path d="M359.313,25.087 L377.266,1.645 L368.846,1.645 L355.135,19.461 L359.313,25.087" id="Fill-13" fill="#FFFFFF" sketch:type="MSShapeGroup"></path>
            <path d="M397.39,1.647 L405.058,1.647 L405.058,55.858 L397.39,55.858 L397.39,1.647 Z" id="Fill-14" fill="#FFFFFF" sketch:type="MSShapeGroup"></path>
            <path d="M83.049,1.452 L68.724,1.452 L36.948,55.858 L51.807,55.858 L57.293,46.104 L76.42,46.104 L77.716,55.858 L91.965,55.858 L83.049,1.452 L83.049,1.452 Z M62.78,35.588 L72.991,16.005 L73.144,16.005 L75.2,35.588 L62.78,35.588 L62.78,35.588 Z" id="Fill-15" fill="#FFFFFF" sketch:type="MSShapeGroup"></path>
            <path d="M133.34,1.452 L91.273,1.452 L88.216,13.643 L103.57,13.643 L94.253,55.858 L108.426,55.858 L117.742,13.643 L126.802,13.643 L133.34,1.452" id="Fill-16" fill="#FFFFFF" sketch:type="MSShapeGroup"></path>
            <path d="M147.72,11.966 C150.235,11.966 152.14,12.424 153.435,13.415 C154.653,14.328 155.339,15.776 155.339,17.834 L169.513,17.834 C169.893,4.575 160.064,0.307 148.482,0.307 C143.925,0.307 139.319,1.231 135.498,3.203 L126.496,19.803 C127.303,26.492 132.431,29.695 138.652,31.932 C144.291,33.911 152.52,34.523 152.52,39.931 C152.52,42.904 150.157,45.341 144.443,45.341 C137.736,45.341 134.46,43.436 134.46,37.571 L120.288,37.571 C120.135,50.447 129.204,57 142.157,57 C158.083,57 166.693,48.847 166.693,39.169 C166.693,28.501 157.931,24.615 150.463,22.558 C142.843,20.5 140.557,20.119 140.557,16.844 C140.557,13.415 144.214,11.966 147.72,11.966" id="Fill-17" fill="#FFFFFF" sketch:type="MSShapeGroup"></path>
            <g id="Group-21">
                <mask id="mask-2" sketch:name="Clip 19" fill="white">
                    <use xlink:href="#path-1"></use>
                </mask>
                <g id="Clip-19"></g>
                <path d="M44.418,45.044 L42.91,47.845 C43.514,46.954 44.018,46.018 44.418,45.044" id="Fill-18" fill="#FFFFFF" sketch:type="MSShapeGroup" mask="url(#mask-2)"></path>
                <path d="M45.9,35.023 C43.938,27.438 36.584,24.322 30.176,22.557 C22.558,20.5 20.271,20.119 20.271,16.844 C20.271,13.414 23.928,11.965 27.434,11.965 C29.948,11.965 31.854,12.424 33.148,13.414 C34.368,14.329 35.054,15.777 35.054,17.834 L49.227,17.834 C49.607,4.576 39.778,0.308 28.196,0.308 C17.299,0.308 6.098,5.566 6.098,17.91 C6.098,25.91 11.585,29.493 18.367,31.932 C24.004,33.912 32.234,34.522 32.234,39.932 C32.234,42.904 29.872,45.341 24.157,45.341 C17.452,45.341 14.175,43.437 14.175,37.57 L0.002,37.57 C-0.15,50.446 8.918,57 21.871,57 C26.806,57 31.032,56.212 34.523,54.843 L42.172,41.748 L45.9,35.023" id="Fill-20" fill="#FFFFFF" sketch:type="MSShapeGroup" mask="url(#mask-2)"></path>
            </g>
            <path d="M43.196,45.194 L41.658,48.048 C42.274,47.139 42.788,46.186 43.196,45.194" id="Fill-22" fill="#FFFFFF" sketch:type="MSShapeGroup"></path>
            <path d="M44.418,45.044 L42.91,47.845 C43.514,46.954 44.018,46.018 44.418,45.044" id="Fill-23" fill="#FFFFFF" sketch:type="MSShapeGroup"></path>
            <path d="M43.196,45.194 L41.658,48.048 C42.274,47.139 42.788,46.186 43.196,45.194" id="Fill-24" fill="#FFFFFF" sketch:type="MSShapeGroup"></path>
        </g>
    </g>
</svg>